<?xml version="1.0" encoding="utf-8" ?><svg xmlns="http://www.w3.org/2000/svg" xmlns:xlink="http://www.w3.org/1999/xlink" width="280" height="158" viewBox="0 0 280 158"><path fill="#E2E2E2" transform="matrix(0.153846 0 0 0.154297 0.00012207 0)" d="M0 0L1820 0L1820 1024L0 1024L0 0Z"/><defs><linearGradient id="gradient_0" gradientUnits="userSpaceOnUse" x1="115.35796" y1="669.83551" x2="935.60736" y2="442.77185"><stop offset="0" stop-color="#252525"/><stop offset="1" stop-color="#4D4C4C"/></linearGradient></defs><path fill="url(#gradient_0)" transform="matrix(0.153846 0 0 0.154297 0.00012207 0)" d="M911.866 754.687L908.301 754.734L406.812 754.724L251.037 754.663L206.428 754.754C180.09 754.813 160.764 755.924 140.379 735.377C119.97 714.806 121.688 692.835 121.724 666.583L121.819 614.251L121.694 428.782C121.637 404.618 123.109 386.281 141.514 367.926C152.121 357.536 165.852 350.926 180.588 349.117C195.038 347.298 236.635 348.452 252.871 348.446L405.819 348.459L911.917 348.411L911.986 356.13L911.866 754.687Z"/><path fill="#E2E2E2" transform="matrix(0.153846 0 0 0.154297 0.00012207 0)" d="M701.117 471.015L750.953 471.012C782.977 471.01 814.939 469.124 840.329 493.058C855.445 507.307 862.496 528.559 862.619 548.917C862.772 574.321 858.084 592.923 840.403 611.529C817.066 635.736 778.875 633.806 748.256 633.752L700.77 633.839C701.173 579.565 701.289 525.29 701.117 471.015Z"/><path fill="#4A4A4A" transform="matrix(0.153846 0 0 0.154297 0.00012207 0)" d="M751.54 509.839C766.264 509.791 786.392 508.292 797.911 518.245C816.749 534.523 815.959 567.305 800.66 585.414C786.513 597.401 768.698 595.509 751.09 595.514L751.54 509.839Z"/><path fill="#E2E2E2" transform="matrix(0.153846 0 0 0.154297 0.00012207 0)" d="M198.591 471.253L245.728 471.65C277.736 471.826 310.123 470.496 335.484 494.432C351.126 509.195 357.478 530.852 357.468 551.794C357.455 577.313 352.552 593.88 334.513 612.438C307.633 634.888 280.763 633.85 247.58 633.853L198.778 633.818L198.591 471.253Z"/><path fill="#1A1A1A" transform="matrix(0.153846 0 0 0.154297 0.00012207 0)" d="M248.689 509.719C262.048 509.442 282.657 508.124 293.372 517.127C311.998 532.777 311.1 568.167 296.996 586.182C282.853 598.251 266.596 596.115 248.709 596.193L248.689 509.719Z"/><path fill="#E2E2E2" transform="matrix(0.153846 0 0 0.154297 0.00012207 0)" d="M572.21 470.846L626.339 470.901C647.08 525.393 668.385 579.668 690.249 633.718L638.78 633.708C636.708 627.047 633.839 616.485 630.142 610.527C629.752 609.898 628.624 609.988 627.625 609.858C607.62 610.043 587.613 610.054 567.608 609.889C564.555 617.811 561.647 625.788 558.885 633.816C541.879 633.63 524.635 633.784 507.609 633.789C513.806 619.95 519.399 604.858 525.178 590.716C541.231 550.908 556.91 510.95 572.21 470.846Z"/><path fill="#4A4A4A" transform="matrix(0.153846 0 0 0.154297 0.00012207 0)" d="M600.005 521.476C606.042 539.523 612.352 557.478 618.933 575.334L599.631 575.247L581.275 575.25C587.849 557.751 593.195 538.455 600.005 521.476Z"/><path fill="#E2E2E2" transform="matrix(0.153846 0 0 0.154297 0.00012207 0)" d="M376.006 471.106L501.744 470.967L501.493 508.419L426.68 508.096L426.62 533.232C448.585 532.171 473.151 532.57 495.311 532.471L495.2 569.737L429.018 569.734C427.808 569.925 428.157 569.932 427.033 570.763C426.145 576.544 426.576 589.243 426.632 595.625C452.164 595.422 477.696 595.352 503.228 595.415L503.286 633.786L375.939 633.771L376.006 471.106Z"/><defs><linearGradient id="gradient_1" gradientUnits="userSpaceOnUse" x1="1707.3507" y1="618.12091" x2="898.70471" y2="492.20056"><stop offset="0" stop-color="#190201"/><stop offset="1" stop-color="#B40100"/></linearGradient></defs><path fill="url(#gradient_1)" transform="matrix(0.153846 0 0 0.154297 0.00012207 0)" d="M911.917 348.411C930.299 348.385 950.775 347.911 968.991 348.536C1019.59 347.441 1073.89 348.43 1124.72 348.46L1413.6 348.505L1565.89 348.553C1591.42 348.57 1617.65 347.941 1643.05 349.633C1662.21 350.909 1691.49 371.727 1695.21 390.951C1701.79 405.519 1699.86 432.449 1699.87 449.07L1699.87 523.025L1699.86 617.578C1699.85 643.522 1700.03 669.249 1699.02 695.172C1698.15 717.307 1677.05 746.832 1655.64 750.716C1640.59 756.791 1581.05 754.566 1561.8 754.577L1415.75 754.621L911.866 754.687L911.986 356.13L911.917 348.411Z"/><path fill="#2B0503" transform="matrix(0.153846 0 0 0.154297 0.00012207 0)" d="M1695.21 390.951C1701.79 405.519 1699.86 432.449 1699.87 449.07L1699.87 523.025L1699.86 617.578C1699.85 643.522 1700.03 669.249 1699.02 695.172C1698.15 717.307 1677.05 746.832 1655.64 750.716L1656.53 748.934C1673.2 742.283 1645.51 736.91 1669.42 726.446C1678.29 711.264 1691.04 719.176 1689.96 700.331C1689.79 697.339 1693.47 694.774 1695.79 692.867C1699.04 684.328 1695.15 676.21 1695.32 667.842C1695.76 662.215 1697.67 656.81 1697.87 651.153C1698.51 632.987 1697.56 614.992 1696.84 596.894C1697.16 587.808 1698.2 578.521 1698.13 569.433C1697.75 516.22 1698.32 462.973 1697.66 409.774C1697.58 403.281 1695.75 397.418 1695.21 390.951Z"/><path fill="#8B0000" transform="matrix(0.153846 0 0 0.154297 0.00012207 0)" d="M911.917 348.411C930.299 348.385 950.775 347.911 968.991 348.536C961.443 351.596 924.625 348.268 921.963 352.612C923.764 364.044 926.086 376.293 927.211 387.684C927.723 392.866 921.531 405.99 921.059 411.757C919.393 432.113 916.793 452.032 913.969 472.232C911.41 490.535 916.752 518.392 913.338 536.145C912.941 496.042 912.793 455.937 912.892 415.832C912.899 408.207 913.628 360.976 911.986 356.13L911.917 348.411Z"/><path fill="#E2E2E2" transform="matrix(0.153846 0 0 0.154297 0.00012207 0)" d="M1436.12 471.803C1452.99 471.93 1469.86 471.951 1486.73 471.867C1510.13 471.861 1538.27 469.593 1558.48 482.995C1589.2 503.363 1589.24 538.496 1571.01 566.831C1570.46 570.82 1569.77 571.596 1566.09 574.36C1564.74 575.367 1563.36 576.352 1561.97 577.316C1561.68 581.595 1561.37 585.959 1561.22 590.247C1561.15 592.535 1562.13 592.571 1561.92 594.835C1563.13 597.706 1584.14 628.511 1587.37 633.443L1533.34 633.526L1506.5 589.263L1487.6 589.26L1487.79 633.742C1470.54 633.605 1453.3 633.557 1436.05 633.598L1436.12 471.803Z"/><path fill="#2B0503" transform="matrix(0.153846 0 0 0.154297 0.00012207 0)" d="M1571.01 566.831C1570.46 570.82 1569.77 571.596 1566.09 574.36C1564.74 575.367 1563.36 576.352 1561.97 577.316C1561.68 581.595 1561.37 585.959 1561.22 590.247C1561.15 592.535 1562.13 592.571 1561.92 594.835C1558.82 590.876 1555.01 585.204 1552 581.006C1561.25 576.563 1564.01 573.952 1571.01 566.831Z"/><path fill="#2B0503" transform="matrix(0.153846 0 0 0.154297 0.00012207 0)" d="M1487.7 509.041C1501.3 508.931 1523.47 506.053 1531.18 519.731C1536.55 529.252 1535.01 537.916 1529.18 546.689C1516.52 555.11 1502.87 553.079 1487.74 552.945L1487.7 509.041Z"/><path fill="#E2E2E2" transform="matrix(0.153846 0 0 0.154297 0.00012207 0)" d="M1228.88 470.874C1246.57 470.483 1265.82 470.915 1283.64 470.962C1303.98 523.197 1326 582.031 1348.08 633.07L1296.2 633.477C1294.51 628.708 1288.74 611.287 1286.67 607.686L1226.25 607.832C1224.01 615.399 1219.76 626.036 1216.98 633.693L1166.18 633.768C1170.67 620.49 1177.52 604.443 1182.73 591.172L1212.86 513.896C1217.86 501.004 1225.04 483.69 1228.88 470.874Z"/><path fill="#490401" transform="matrix(0.153846 0 0 0.154297 0.00012207 0)" d="M1256.11 524.047C1259.19 526.69 1273.57 567.083 1276.24 573.992L1260.75 574.067L1237.91 574.162C1243.7 557.358 1249.77 540.651 1256.11 524.047Z"/><path fill="#E2E2E2" transform="matrix(0.153846 0 0 0.154297 0.00012207 0)" d="M1359.7 472.029L1411.05 472.009C1411.09 524.507 1412.16 581.034 1410.87 633.233C1393.79 633.217 1376.72 633.321 1359.64 633.543C1360.26 580.063 1359.93 525.543 1359.7 472.029Z"/><path fill="#E2E2E2" transform="matrix(0.153846 0 0 0.154297 0.00012207 0)" d="M1049.65 450.825C1086.32 446.606 1088.56 468.459 1086 498.82C1083.77 525.223 1095.79 551.31 1069.24 566.099C1043.48 574.179 1031.56 553.771 1033.81 531.473C1034.97 520.033 1033.92 504.995 1034.17 493.323C1034.61 473.199 1030.27 462.338 1049.65 450.825Z"/><path fill="#E2E2E2" transform="matrix(0.153846 0 0 0.154297 0.00012207 0)" d="M1102.13 532.559L1113.65 532.626C1111.25 563.176 1096.01 586.307 1063.74 589.809L1063.63 613.778L1063.64 628.936L1099.04 628.864L1099.01 638.721C1085.93 638.652 1027.42 639.922 1019.29 637.644C1018.42 634.094 1018.51 633.432 1018.79 629.862C1021.52 628.053 1048.37 628.908 1053.48 628.926L1053.49 589.776C1041.26 588.932 1029.73 583.776 1020.94 575.224C1008.26 562.831 1005 549.451 1004.85 532.604L1015.65 532.62C1015.09 558.306 1030.92 578.848 1057.59 579.434C1069.49 579.787 1081.01 575.257 1089.49 566.896C1099.72 556.805 1101.91 546.146 1102.13 532.559Z"/></svg>